<svg width="120" height="120" viewBox="0 0 120 120" fill="none" xmlns="http://www.w3.org/2000/svg">
<path d="M82.5 55C90.7843 55 97.5 48.2843 97.5 40C97.5 31.7157 90.7843 25 82.5 25C74.2157 25 67.5 31.7157 67.5 40C67.5 48.2843 74.2157 55 82.5 55Z" fill="#37474F"/>
<path d="M37.5 55C45.7843 55 52.5 48.2843 52.5 40C52.5 31.7157 45.7843 25 37.5 25C29.2157 25 22.5 31.7157 22.5 40C22.5 48.2843 29.2157 55 37.5 55Z" fill="#37474F"/>
<path d="M116.75 62.5L78.5 70H41.75L3.5 62.5L14.25 42.75C17 38 22 35 27.5 35H93C98.5 35 103.5 38 106.25 42.75L116.75 62.5Z" fill="#37474F"/>
<path d="M95 100C108.807 100 120 88.8071 120 75C120 61.1929 108.807 50 95 50C81.1929 50 70 61.1929 70 75C70 88.8071 81.1929 100 95 100Z" fill="#37474F"/>
<path d="M25 100C38.8071 100 50 88.8071 50 75C50 61.1929 38.8071 50 25 50C11.1929 50 0 61.1929 0 75C0 88.8071 11.1929 100 25 100Z" fill="#37474F"/>
<path d="M60 82.5C66.9036 82.5 72.5 76.9036 72.5 70C72.5 63.0964 66.9036 57.5 60 57.5C53.0964 57.5 47.5 63.0964 47.5 70C47.5 76.9036 53.0964 82.5 60 82.5Z" fill="#37474F"/>
<path d="M60 75C62.7614 75 65 72.7614 65 70C65 67.2386 62.7614 65 60 65C57.2386 65 55 67.2386 55 70C55 72.7614 57.2386 75 60 75Z" fill="#546E7A"/>
<path d="M95 92.5C104.665 92.5 112.5 84.665 112.5 75C112.5 65.335 104.665 57.5 95 57.5C85.335 57.5 77.5 65.335 77.5 75C77.5 84.665 85.335 92.5 95 92.5Z" fill="#AA00FF"/>
<path d="M25 92.5C34.665 92.5 42.5 84.665 42.5 75C42.5 65.335 34.665 57.5 25 57.5C15.335 57.5 7.5 65.335 7.5 75C7.5 84.665 15.335 92.5 25 92.5Z" fill="#AA00FF"/>
<path d="M104.25 69.25C101.75 66.5 98.5 65 95 65C91.5 65 88 66.5 85.75 69.25C84.75 70.25 85 71.75 86 72.75C87 73.75 88.5 73.5 89.5 72.5C92.5 69.25 97.75 69.25 100.75 72.5C101.25 73 102 73.25 102.5 73.25C103 73.25 103.75 73 104.25 72.5C105.25 71.75 105.25 70.25 104.25 69.25ZM25 65C21.5 65 18 66.5 15.75 69.25C14.75 70.25 15 71.75 16 72.75C17 73.75 18.5 73.5 19.5 72.5C22.5 69.25 27.75 69.25 30.75 72.5C31.25 73 32 73.25 32.5 73.25C33 73.25 33.75 73 34.25 72.5C35.25 71.5 35.25 70 34.5 69C32 66.5 28.5 65 25 65Z" fill="#CE93D8"/>
</svg>
