<svg width="120" height="120" viewBox="0 0 120 120" fill="none" xmlns="http://www.w3.org/2000/svg">
<path d="M23.8819 41.5875H4.79813C4.63875 41.5875 4.50375 41.6625 4.50375 41.7525V52.17C4.50375 52.2562 4.63875 52.3294 4.79813 52.3294H23.8819C23.9663 52.3294 24.0356 52.3106 24.0769 52.2863L24.0881 52.2806H24.0938C24.1425 52.2562 24.1725 52.2131 24.1725 52.17V41.7525C24.1763 41.6625 24.0413 41.5875 23.8819 41.5875Z" fill="#243438"/>
<path d="M93.8813 45.96H1.40625C0.639377 45.96 0.00187683 46.3163 0.00187683 46.7456V97.2113C0.00187683 97.6406 0.639377 97.995 1.40625 97.995H93.8813C94.2919 97.995 94.6106 97.9087 94.8375 97.7812C94.8375 97.7812 94.8563 97.7756 94.8694 97.7625C94.8881 97.7625 94.8938 97.7494 94.9069 97.7381C95.13 97.6162 95.2856 97.4381 95.2856 97.2113V46.7456C95.2819 46.3163 94.6406 45.96 93.8794 45.96" fill="#34484C"/>
<path d="M94.0875 54.5438H15.1875C14.5387 54.5438 13.9931 54.8438 13.9931 55.2V97.3313C13.9931 97.6931 14.5387 97.9875 15.1875 97.9875H94.0875C94.4362 97.9875 94.7062 97.92 94.9031 97.8094C94.9031 97.8094 94.9144 97.8037 94.9275 97.7906C94.9275 97.7906 94.9519 97.7775 94.9594 97.7663C95.1544 97.6669 95.2837 97.5206 95.2837 97.3313V55.2C95.28 54.8438 94.7287 54.5438 94.0875 54.5438Z" fill="#243438"/>
<path d="M91.7175 50.4038H72.6281C72.4706 50.4038 72.3431 50.4769 72.3431 50.5688V60.9806C72.3431 61.0725 72.4706 61.1456 72.6281 61.1456H91.7175C91.8056 61.1456 91.8731 61.1269 91.9163 61.1044L91.9219 61.0969H91.9275C91.9763 61.065 92.0081 61.0294 92.0081 60.9806V50.5688C92.0081 50.4769 91.8806 50.4038 91.7175 50.4038Z" fill="#56787F"/>
<path d="M67.3181 71.9812C67.3181 82.1775 58.6594 90.4331 47.9887 90.4331C37.3144 90.4331 28.6537 82.1794 28.6537 71.9812C28.6537 61.7887 37.3125 53.535 47.9887 53.535C58.6594 53.535 67.3181 61.7887 67.3181 71.9812Z" fill="#D1D2D3"/>
<path d="M65.3512 71.9812C65.3512 81.1425 57.5756 88.5506 47.9906 88.5506C38.4 88.5506 30.6225 81.1425 30.6225 71.9812C30.6225 62.8256 38.4 55.41 47.9906 55.41C57.5756 55.41 65.3512 62.8256 65.3512 71.9812Z" fill="#A7A8AC"/>
<path d="M63.4463 71.9812C63.4463 80.1319 56.52 86.73 47.9906 86.73C39.4538 86.73 32.5294 80.13 32.5294 71.9812C32.5294 63.8287 39.4538 57.2306 47.9906 57.2306C56.52 57.2306 63.4463 63.8287 63.4463 71.9812Z" fill="#1E75BB"/>
<path d="M61.5394 71.9813C61.5394 79.1269 55.4719 84.9169 47.9888 84.9169C40.5 84.9169 34.4362 79.125 34.4362 71.9813C34.4362 64.8413 40.5 59.0513 47.9888 59.0513C55.4719 59.0494 61.5394 64.8413 61.5394 71.9813Z" fill="#57C6E9"/>
<path d="M40.8881 75.7313C38.4862 70.8169 38.3756 65.5294 40.5412 61.1531C36.8681 63.4631 34.4381 67.4344 34.4381 71.9569C34.4381 79.0969 40.5019 84.8869 47.9906 84.8869C48.12 84.8869 48.255 84.8681 48.3881 84.8681C45.2812 82.3669 42.6581 79.365 40.8881 75.7313Z" fill="#27A8E0"/>
<path d="M91.0612 49.5581H73.2862C73.1362 49.5581 73.0144 49.6256 73.0144 49.7119V59.4131C73.0144 59.4975 73.1344 59.5669 73.2862 59.5669H91.0612C91.1437 59.5669 91.2019 59.5481 91.2487 59.5238L91.2544 59.5181H91.2619C91.3069 59.4937 91.3312 59.4562 91.3312 59.415V49.7137C91.3312 49.6256 91.2112 49.5581 91.0612 49.5581Z" fill="#57C6E9"/>
<path d="M74.3588 40.5675C74.3588 39.1031 86.1019 17.5875 86.1019 17.5875V40.5675L107.379 31.425L101.874 47.475L119.978 52.6106L100.037 55.9125L104.076 73.1569L90.135 61.4138L86.4675 85.62L79.5 65.8163L62.6269 72.0487L68.4938 60.3131L49.7888 58.1137L62.9888 51.6056L49.7888 28.9744L74.3513 40.5619" fill="#FFF200"/>
<path d="M76.1119 43.1812C76.1119 42.0994 84.7331 26.3081 84.7331 26.3081V43.1812L100.356 36.4687L96.3187 48.2531L109.611 52.0219L94.9687 54.4481L97.9294 67.11L87.6956 58.4869L85.005 76.2675L79.8844 61.7175L67.4944 66.2981L71.8069 57.6825L58.0669 56.0644L67.7644 51.285L58.0669 34.665L76.1119 43.1812Z" fill="white"/>
</svg>
