<svg width="120" height="120" viewBox="0 0 120 120" fill="none" xmlns="http://www.w3.org/2000/svg">
<path d="M22.845 16.605C22.845 16.2569 22.9832 15.9231 23.2294 15.6769C23.4755 15.4308 23.8094 15.2925 24.1575 15.2925H36.7125C37.0606 15.2925 37.3944 15.4308 37.6405 15.6769C37.8867 15.9231 38.025 16.2569 38.025 16.605V55.2413H22.8375V16.605H22.845Z" fill="url(#paint0_radial_1_422)"/>
<path d="M22.845 16.605C22.845 16.2569 22.9832 15.9231 23.2294 15.6769C23.4755 15.4308 23.8094 15.2925 24.1575 15.2925H36.7125C37.0606 15.2925 37.3944 15.4308 37.6405 15.6769C37.8867 15.9231 38.025 16.2569 38.025 16.605V55.2413H22.8375V16.605H22.845Z" fill="url(#paint1_linear_1_422)"/>
<path d="M22.845 16.605C22.845 16.2569 22.9832 15.9231 23.2294 15.6769C23.4755 15.4308 23.8094 15.2925 24.1575 15.2925H36.7125C37.0606 15.2925 37.3944 15.4308 37.6405 15.6769C37.8867 15.9231 38.025 16.2569 38.025 16.605V55.2413H22.8375V16.605H22.845Z" fill="url(#paint2_linear_1_422)"/>
<path d="M22.845 16.605C22.845 16.2569 22.9832 15.9231 23.2294 15.6769C23.4755 15.4308 23.8094 15.2925 24.1575 15.2925H36.7125C37.0606 15.2925 37.3944 15.4308 37.6405 15.6769C37.8867 15.9231 38.025 16.2569 38.025 16.605V55.2413H22.8375V16.605H22.845Z" fill="url(#paint3_linear_1_422)"/>
<path d="M22.845 16.605C22.845 16.2569 22.9832 15.9231 23.2294 15.6769C23.4755 15.4308 23.8094 15.2925 24.1575 15.2925H36.7125C37.0606 15.2925 37.3944 15.4308 37.6405 15.6769C37.8867 15.9231 38.025 16.2569 38.025 16.605V55.2413H22.8375V16.605H22.845Z" fill="url(#paint4_radial_1_422)"/>
<path d="M103.71 109.35H17.4037V58.9388L60.555 18.6188L103.71 58.9425V109.35Z" fill="url(#paint5_linear_1_422)"/>
<path d="M103.71 109.35H17.4037V58.9388L60.555 18.6188L103.71 58.9425V109.35Z" fill="url(#paint6_linear_1_422)"/>
<path d="M103.71 109.35H17.4037V58.9388L60.555 18.6188L103.71 58.9425V109.35Z" fill="url(#paint7_radial_1_422)"/>
<path d="M103.71 109.35H17.4037V58.9388L60.555 18.6188L103.71 58.9425V109.35Z" fill="url(#paint8_linear_1_422)"/>
<path d="M103.71 109.35H17.4037V58.9388L60.555 18.6188L103.71 58.9425V109.35Z" fill="url(#paint9_radial_1_422)"/>
<path d="M103.71 109.35H17.4037V58.9388L60.555 18.6188L103.71 58.9425V109.35Z" fill="url(#paint10_linear_1_422)"/>
<path d="M103.71 109.35H17.4037V58.9388L60.555 18.6188L103.71 58.9425V109.35Z" fill="url(#paint11_linear_1_422)"/>
<g filter="url(#filter0_f_1_422)">
<path d="M56.4975 109.35H30.4612V68.0662C30.4612 64.9237 32.46 62.34 34.8862 62.34H52.0725C54.5025 62.34 56.4975 64.9237 56.4975 68.0662V109.35Z" fill="url(#paint12_linear_1_422)"/>
</g>
<g filter="url(#filter1_i_1_422)">
<path d="M88.6875 81.99H72.975C72.5622 81.9905 72.1533 81.9095 71.7719 81.7518C71.3904 81.594 71.0437 81.3626 70.7518 81.0707C70.4599 80.7788 70.2285 80.4321 70.0707 80.0507C69.913 79.6692 69.832 79.2603 69.8325 78.8475V63.1425C69.8325 61.38 71.265 60 72.975 60H88.68C90.4425 60 91.8225 61.4325 91.8225 63.1425V78.8475C91.8225 80.61 90.4463 81.99 88.68 81.99H88.6875Z" fill="url(#paint13_linear_1_422)"/>
<path d="M88.6875 81.99H72.975C72.5622 81.9905 72.1533 81.9095 71.7719 81.7518C71.3904 81.594 71.0437 81.3626 70.7518 81.0707C70.4599 80.7788 70.2285 80.4321 70.0707 80.0507C69.913 79.6692 69.832 79.2603 69.8325 78.8475V63.1425C69.8325 61.38 71.265 60 72.975 60H88.68C90.4425 60 91.8225 61.4325 91.8225 63.1425V78.8475C91.8225 80.61 90.4463 81.99 88.68 81.99H88.6875Z" fill="url(#paint14_linear_1_422)"/>
</g>
<path d="M88.6875 81.99H72.975C72.5622 81.9905 72.1533 81.9095 71.7719 81.7518C71.3904 81.594 71.0437 81.3626 70.7518 81.0707C70.4599 80.7788 70.2285 80.4321 70.0707 80.0507C69.913 79.6692 69.832 79.2603 69.8325 78.8475V63.1425C69.8325 61.38 71.265 60 72.975 60H88.68C90.4425 60 91.8225 61.4325 91.8225 63.1425V78.8475C91.8225 80.61 90.4463 81.99 88.68 81.99H88.6875Z" fill="url(#paint15_linear_1_422)"/>
<path d="M88.6875 81.99H72.975C72.5622 81.9905 72.1533 81.9095 71.7719 81.7518C71.3904 81.594 71.0437 81.3626 70.7518 81.0707C70.4599 80.7788 70.2285 80.4321 70.0707 80.0507C69.913 79.6692 69.832 79.2603 69.8325 78.8475V63.1425C69.8325 61.38 71.265 60 72.975 60H88.68C90.4425 60 91.8225 61.4325 91.8225 63.1425V78.8475C91.8225 80.61 90.4463 81.99 88.68 81.99H88.6875Z" fill="url(#paint16_linear_1_422)"/>
<g filter="url(#filter2_ii_1_422)">
<path d="M60.9637 104.618H31.9275V65.49C31.9275 62.5088 34.1512 60.06 36.8625 60.06H56.025C58.7362 60.06 60.9637 62.5088 60.9637 65.49V104.618Z" fill="url(#paint17_linear_1_422)"/>
</g>
<g filter="url(#filter3_f_1_422)">
<path d="M53.6888 83.5237C54.2432 83.5237 54.775 83.3035 55.1671 82.9114C55.5591 82.5193 55.7794 81.9876 55.7794 81.4331C55.7794 80.8787 55.5591 80.3469 55.1671 79.9548C54.775 79.5628 54.2432 79.3425 53.6888 79.3425C53.1343 79.3425 52.6025 79.5628 52.2105 79.9548C51.8184 80.3469 51.5981 80.8787 51.5981 81.4331C51.5981 81.9876 51.8184 82.5193 52.2105 82.9114C52.6025 83.3035 53.1343 83.5237 53.6888 83.5237Z" fill="#62393D"/>
</g>
<g filter="url(#filter4_ii_1_422)">
<path d="M54.2325 83.2087C54.7924 83.2087 55.3294 82.9863 55.7253 82.5904C56.1213 82.1944 56.3437 81.6574 56.3437 81.0975C56.3437 80.5376 56.1213 80.0006 55.7253 79.6046C55.3294 79.2087 54.7924 78.9862 54.2325 78.9862C53.6725 78.9862 53.1355 79.2087 52.7396 79.6046C52.3437 80.0006 52.1212 80.5376 52.1212 81.0975C52.1212 81.6574 52.3437 82.1944 52.7396 82.5904C53.1355 82.9863 53.6725 83.2087 54.2325 83.2087Z" fill="#895D56"/>
</g>
<path d="M111.518 59.4263L63.7425 12.3563C62.8892 11.5058 61.7335 11.0282 60.5288 11.0282C59.324 11.0282 58.1683 11.5058 57.315 12.3563C57.315 12.3563 57.2625 12.3563 57.2625 12.4088L9.38625 59.5275C8.96547 59.9398 8.6312 60.432 8.403 60.9751C8.17479 61.5183 8.05725 62.1015 8.05725 62.6906C8.05725 63.2798 8.17479 63.863 8.403 64.4061C8.6312 64.9493 8.96547 65.4414 9.38625 65.8538C10.2452 66.6934 11.3988 67.1636 12.6 67.1636C13.8012 67.1636 14.9547 66.6934 15.8137 65.8538L59.8425 22.4625C60.0179 22.2896 60.2543 22.1927 60.5006 22.1927C60.7469 22.1927 60.9833 22.2896 61.1588 22.4625L105.041 65.7C105.895 66.5505 107.05 67.0281 108.255 67.0281C109.46 67.0281 110.615 66.5505 111.469 65.7C113.239 63.9263 113.291 61.14 111.518 59.4225V59.4263Z" fill="url(#paint18_linear_1_422)"/>
<path d="M111.518 59.4263L63.7425 12.3563C62.8892 11.5058 61.7335 11.0282 60.5288 11.0282C59.324 11.0282 58.1683 11.5058 57.315 12.3563C57.315 12.3563 57.2625 12.3563 57.2625 12.4088L9.38625 59.5275C8.96547 59.9398 8.6312 60.432 8.403 60.9751C8.17479 61.5183 8.05725 62.1015 8.05725 62.6906C8.05725 63.2798 8.17479 63.863 8.403 64.4061C8.6312 64.9493 8.96547 65.4414 9.38625 65.8538C10.2452 66.6934 11.3988 67.1636 12.6 67.1636C13.8012 67.1636 14.9547 66.6934 15.8137 65.8538L59.8425 22.4625C60.0179 22.2896 60.2543 22.1927 60.5006 22.1927C60.7469 22.1927 60.9833 22.2896 61.1588 22.4625L105.041 65.7C105.895 66.5505 107.05 67.0281 108.255 67.0281C109.46 67.0281 110.615 66.5505 111.469 65.7C113.239 63.9263 113.291 61.14 111.518 59.4225V59.4263Z" fill="url(#paint19_radial_1_422)"/>
<g filter="url(#filter5_f_1_422)">
<path d="M27.5925 102.292H60V106.537H27.5925V102.292Z" fill="#68552B"/>
</g>
<g filter="url(#filter6_i_1_422)">
<path d="M8.05499 112.245C8.05499 108.056 11.4525 104.662 15.6375 104.662H105.24C109.425 104.662 112.822 108.056 112.822 112.245H8.05499Z" fill="url(#paint20_linear_1_422)"/>
</g>
<path d="M8.05499 112.245C8.05499 108.056 11.4525 104.662 15.6375 104.662H105.24C109.425 104.662 112.822 108.056 112.822 112.245H8.05499Z" fill="url(#paint21_linear_1_422)"/>
<path d="M8.05499 112.245C8.05499 108.056 11.4525 104.662 15.6375 104.662H105.24C109.425 104.662 112.822 108.056 112.822 112.245H8.05499Z" fill="url(#paint22_radial_1_422)"/>
<path d="M28.3613 104.167C28.3613 103.422 28.6576 102.706 29.185 102.179C29.7125 101.651 30.4278 101.355 31.1738 101.355H61.2225C63.0488 101.355 64.53 102.836 64.53 104.662H28.3613V104.167Z" fill="url(#paint23_linear_1_422)"/>
<path d="M28.3613 104.167C28.3613 103.422 28.6576 102.706 29.185 102.179C29.7125 101.651 30.4278 101.355 31.1738 101.355H61.2225C63.0488 101.355 64.53 102.836 64.53 104.662H28.3613V104.167Z" fill="url(#paint24_linear_1_422)"/>
<path d="M28.3613 104.167C28.3613 103.422 28.6576 102.706 29.185 102.179C29.7125 101.651 30.4278 101.355 31.1738 101.355H61.2225C63.0488 101.355 64.53 102.836 64.53 104.662H28.3613V104.167Z" fill="url(#paint25_linear_1_422)"/>
<g filter="url(#filter7_f_1_422)">
<path d="M61.2675 14.6138L109.181 61.7888" stroke="url(#paint26_linear_1_422)" stroke-width="0.3" stroke-linecap="round"/>
</g>
<g filter="url(#filter8_f_1_422)">
<path d="M61.2675 14.6138L13.3613 61.7888" stroke="url(#paint27_linear_1_422)" stroke-opacity="0.5" stroke-width="0.3" stroke-linecap="round"/>
</g>
<defs>
<filter id="filter0_f_1_422" x="29.9612" y="61.84" width="27.0363" height="48.01" filterUnits="userSpaceOnUse" color-interpolation-filters="sRGB">
<feFlood flood-opacity="0" result="BackgroundImageFix"/>
<feBlend mode="normal" in="SourceGraphic" in2="BackgroundImageFix" result="shape"/>
<feGaussianBlur stdDeviation="0.25" result="effect1_foregroundBlur_1_422"/>
</filter>
<filter id="filter1_i_1_422" x="69.3325" y="60" width="22.49" height="22.49" filterUnits="userSpaceOnUse" color-interpolation-filters="sRGB">
<feFlood flood-opacity="0" result="BackgroundImageFix"/>
<feBlend mode="normal" in="SourceGraphic" in2="BackgroundImageFix" result="shape"/>
<feColorMatrix in="SourceAlpha" type="matrix" values="0 0 0 0 0 0 0 0 0 0 0 0 0 0 0 0 0 0 127 0" result="hardAlpha"/>
<feOffset dx="-0.5" dy="0.5"/>
<feGaussianBlur stdDeviation="0.25"/>
<feComposite in2="hardAlpha" operator="arithmetic" k2="-1" k3="1"/>
<feColorMatrix type="matrix" values="0 0 0 0 0.0470588 0 0 0 0 0.47451 0 0 0 0 0.792157 0 0 0 1 0"/>
<feBlend mode="normal" in2="shape" result="effect1_innerShadow_1_422"/>
</filter>
<filter id="filter2_ii_1_422" x="31.7275" y="60.06" width="29.4863" height="44.5575" filterUnits="userSpaceOnUse" color-interpolation-filters="sRGB">
<feFlood flood-opacity="0" result="BackgroundImageFix"/>
<feBlend mode="normal" in="SourceGraphic" in2="BackgroundImageFix" result="shape"/>
<feColorMatrix in="SourceAlpha" type="matrix" values="0 0 0 0 0 0 0 0 0 0 0 0 0 0 0 0 0 0 127 0" result="hardAlpha"/>
<feOffset dx="0.25"/>
<feGaussianBlur stdDeviation="0.25"/>
<feComposite in2="hardAlpha" operator="arithmetic" k2="-1" k3="1"/>
<feColorMatrix type="matrix" values="0 0 0 0 0.254902 0 0 0 0 0.188235 0 0 0 0 0.141176 0 0 0 1 0"/>
<feBlend mode="normal" in2="shape" result="effect1_innerShadow_1_422"/>
<feColorMatrix in="SourceAlpha" type="matrix" values="0 0 0 0 0 0 0 0 0 0 0 0 0 0 0 0 0 0 127 0" result="hardAlpha"/>
<feOffset dx="-0.2"/>
<feGaussianBlur stdDeviation="0.15"/>
<feComposite in2="hardAlpha" operator="arithmetic" k2="-1" k3="1"/>
<feColorMatrix type="matrix" values="0 0 0 0 0.694118 0 0 0 0 0.470588 0 0 0 0 0.407843 0 0 0 1 0"/>
<feBlend mode="normal" in2="effect1_innerShadow_1_422" result="effect2_innerShadow_1_422"/>
</filter>
<filter id="filter3_f_1_422" x="51.4481" y="79.1925" width="4.48127" height="4.48125" filterUnits="userSpaceOnUse" color-interpolation-filters="sRGB">
<feFlood flood-opacity="0" result="BackgroundImageFix"/>
<feBlend mode="normal" in="SourceGraphic" in2="BackgroundImageFix" result="shape"/>
<feGaussianBlur stdDeviation="0.075" result="effect1_foregroundBlur_1_422"/>
</filter>
<filter id="filter4_ii_1_422" x="52.0212" y="78.9862" width="4.42247" height="4.2225" filterUnits="userSpaceOnUse" color-interpolation-filters="sRGB">
<feFlood flood-opacity="0" result="BackgroundImageFix"/>
<feBlend mode="normal" in="SourceGraphic" in2="BackgroundImageFix" result="shape"/>
<feColorMatrix in="SourceAlpha" type="matrix" values="0 0 0 0 0 0 0 0 0 0 0 0 0 0 0 0 0 0 127 0" result="hardAlpha"/>
<feOffset dx="-0.1"/>
<feGaussianBlur stdDeviation="0.1"/>
<feComposite in2="hardAlpha" operator="arithmetic" k2="-1" k3="1"/>
<feColorMatrix type="matrix" values="0 0 0 0 0.694118 0 0 0 0 0.482353 0 0 0 0 0.419608 0 0 0 1 0"/>
<feBlend mode="normal" in2="shape" result="effect1_innerShadow_1_422"/>
<feColorMatrix in="SourceAlpha" type="matrix" values="0 0 0 0 0 0 0 0 0 0 0 0 0 0 0 0 0 0 127 0" result="hardAlpha"/>
<feOffset dx="0.1"/>
<feGaussianBlur stdDeviation="0.1"/>
<feComposite in2="hardAlpha" operator="arithmetic" k2="-1" k3="1"/>
<feColorMatrix type="matrix" values="0 0 0 0 0.290196 0 0 0 0 0.184314 0 0 0 0 0.164706 0 0 0 1 0"/>
<feBlend mode="normal" in2="effect1_innerShadow_1_422" result="effect2_innerShadow_1_422"/>
</filter>
<filter id="filter5_f_1_422" x="27.0925" y="101.792" width="33.4075" height="5.245" filterUnits="userSpaceOnUse" color-interpolation-filters="sRGB">
<feFlood flood-opacity="0" result="BackgroundImageFix"/>
<feBlend mode="normal" in="SourceGraphic" in2="BackgroundImageFix" result="shape"/>
<feGaussianBlur stdDeviation="0.25" result="effect1_foregroundBlur_1_422"/>
</filter>
<filter id="filter6_i_1_422" x="8.05499" y="104.662" width="105.268" height="7.5825" filterUnits="userSpaceOnUse" color-interpolation-filters="sRGB">
<feFlood flood-opacity="0" result="BackgroundImageFix"/>
<feBlend mode="normal" in="SourceGraphic" in2="BackgroundImageFix" result="shape"/>
<feColorMatrix in="SourceAlpha" type="matrix" values="0 0 0 0 0 0 0 0 0 0 0 0 0 0 0 0 0 0 127 0" result="hardAlpha"/>
<feOffset dx="0.5"/>
<feGaussianBlur stdDeviation="0.5"/>
<feComposite in2="hardAlpha" operator="arithmetic" k2="-1" k3="1"/>
<feColorMatrix type="matrix" values="0 0 0 0 0.25098 0 0 0 0 0.545098 0 0 0 0 0.352941 0 0 0 1 0"/>
<feBlend mode="normal" in2="shape" result="effect1_innerShadow_1_422"/>
</filter>
<filter id="filter7_f_1_422" x="60.5174" y="13.8638" width="49.4138" height="48.675" filterUnits="userSpaceOnUse" color-interpolation-filters="sRGB">
<feFlood flood-opacity="0" result="BackgroundImageFix"/>
<feBlend mode="normal" in="SourceGraphic" in2="BackgroundImageFix" result="shape"/>
<feGaussianBlur stdDeviation="0.3" result="effect1_foregroundBlur_1_422"/>
</filter>
<filter id="filter8_f_1_422" x="12.6112" y="13.8638" width="49.4063" height="48.675" filterUnits="userSpaceOnUse" color-interpolation-filters="sRGB">
<feFlood flood-opacity="0" result="BackgroundImageFix"/>
<feBlend mode="normal" in="SourceGraphic" in2="BackgroundImageFix" result="shape"/>
<feGaussianBlur stdDeviation="0.3" result="effect1_foregroundBlur_1_422"/>
</filter>
<radialGradient id="paint0_radial_1_422" cx="0" cy="0" r="1" gradientUnits="userSpaceOnUse" gradientTransform="translate(35.9737 17.5275) rotate(90) scale(17.7376 9.68175)">
<stop stop-color="#F1B379"/>
<stop offset="1" stop-color="#CD915F"/>
</radialGradient>
<linearGradient id="paint1_linear_1_422" x1="21.795" y1="30.7238" x2="28.1475" y2="30.7238" gradientUnits="userSpaceOnUse">
<stop stop-color="#8E694B"/>
<stop offset="1" stop-color="#8E694B" stop-opacity="0"/>
</linearGradient>
<linearGradient id="paint2_linear_1_422" x1="36.0937" y1="39.6113" x2="31.3762" y2="29.5575" gradientUnits="userSpaceOnUse">
<stop stop-color="#9F6A42"/>
<stop offset="1" stop-color="#9F6A42" stop-opacity="0"/>
</linearGradient>
<linearGradient id="paint3_linear_1_422" x1="30.435" y1="15.075" x2="30.435" y2="15.7275" gradientUnits="userSpaceOnUse">
<stop stop-color="#D5AD80"/>
<stop offset="1" stop-color="#D5AD80" stop-opacity="0"/>
</linearGradient>
<radialGradient id="paint4_radial_1_422" cx="0" cy="0" r="1" gradientUnits="userSpaceOnUse" gradientTransform="translate(39.8062 16.0125) rotate(180) scale(10.5189 2.05661)">
<stop stop-color="#FFCB8C"/>
<stop offset="1" stop-color="#FFCB8C" stop-opacity="0"/>
</radialGradient>
<linearGradient id="paint5_linear_1_422" x1="20.5425" y1="77.9137" x2="101.329" y2="77.9137" gradientUnits="userSpaceOnUse">
<stop stop-color="#D7905F"/>
<stop offset="1" stop-color="#E8BC97"/>
</linearGradient>
<linearGradient id="paint6_linear_1_422" x1="22.8112" y1="111.454" x2="51.7162" y2="66.9563" gradientUnits="userSpaceOnUse">
<stop stop-color="#BA8951"/>
<stop offset="1" stop-color="#BA8951" stop-opacity="0"/>
</linearGradient>
<radialGradient id="paint7_radial_1_422" cx="0" cy="0" r="1" gradientUnits="userSpaceOnUse" gradientTransform="translate(77.115 106.425) rotate(-118.804) scale(14.3923 18.0634)">
<stop stop-color="#BEAB75"/>
<stop offset="1" stop-color="#BEAB75" stop-opacity="0"/>
</radialGradient>
<linearGradient id="paint8_linear_1_422" x1="103.71" y1="90.285" x2="100.939" y2="90.285" gradientUnits="userSpaceOnUse">
<stop stop-color="#FFE6B1"/>
<stop offset="1" stop-color="#FFE6B1" stop-opacity="0"/>
</linearGradient>
<radialGradient id="paint9_radial_1_422" cx="0" cy="0" r="1" gradientUnits="userSpaceOnUse" gradientTransform="translate(104.73 55.935) rotate(90) scale(17.6891 3.99739)">
<stop offset="0.35" stop-color="#9E413E"/>
<stop offset="1" stop-color="#9E413E" stop-opacity="0"/>
</radialGradient>
<linearGradient id="paint10_linear_1_422" x1="75.8475" y1="33.7687" x2="71.5387" y2="38.175" gradientUnits="userSpaceOnUse">
<stop stop-color="#B55852"/>
<stop offset="1" stop-color="#B55852" stop-opacity="0"/>
</linearGradient>
<linearGradient id="paint11_linear_1_422" x1="16.8712" y1="98.9438" x2="19.8187" y2="98.9438" gradientUnits="userSpaceOnUse">
<stop stop-color="#845F3D"/>
<stop offset="1" stop-color="#845F3D" stop-opacity="0"/>
</linearGradient>
<linearGradient id="paint12_linear_1_422" x1="43.4812" y1="62.3438" x2="43.4812" y2="109.346" gradientUnits="userSpaceOnUse">
<stop stop-color="#805139"/>
<stop offset="1" stop-color="#6D4D2F"/>
</linearGradient>
<linearGradient id="paint13_linear_1_422" x1="69.8363" y1="83.655" x2="93.5663" y2="60" gradientUnits="userSpaceOnUse">
<stop stop-color="#4CCCFF"/>
<stop offset="1" stop-color="#3A9EE6"/>
</linearGradient>
<linearGradient id="paint14_linear_1_422" x1="80.8313" y1="83.37" x2="80.8313" y2="79.0425" gradientUnits="userSpaceOnUse">
<stop stop-color="#1E9FE4"/>
<stop offset="1" stop-color="#1E9FE4" stop-opacity="0"/>
</linearGradient>
<linearGradient id="paint15_linear_1_422" x1="69.8363" y1="76.4025" x2="74.2538" y2="76.4025" gradientUnits="userSpaceOnUse">
<stop stop-color="#48E0FF"/>
<stop offset="1" stop-color="#48E0FF" stop-opacity="0"/>
</linearGradient>
<linearGradient id="paint16_linear_1_422" x1="73.1625" y1="56.1525" x2="76.1213" y2="65.0287" gradientUnits="userSpaceOnUse">
<stop stop-color="#43B3F2"/>
<stop offset="1" stop-color="#43B3F2" stop-opacity="0"/>
</linearGradient>
<linearGradient id="paint17_linear_1_422" x1="31.9275" y1="88.005" x2="60.9637" y2="87.8363" gradientUnits="userSpaceOnUse">
<stop stop-color="#70504D"/>
<stop offset="1" stop-color="#9B665E"/>
</linearGradient>
<linearGradient id="paint18_linear_1_422" x1="60.4388" y1="11.0287" x2="60.4388" y2="67.1625" gradientUnits="userSpaceOnUse">
<stop stop-color="#EA6D2E"/>
<stop offset="1" stop-color="#CA222B"/>
</linearGradient>
<radialGradient id="paint19_radial_1_422" cx="0" cy="0" r="1" gradientUnits="userSpaceOnUse" gradientTransform="translate(63.5894 7.23503) rotate(97.326) scale(13.5198 25.2326)">
<stop stop-color="#FF853F"/>
<stop offset="1" stop-color="#FF853F" stop-opacity="0"/>
</radialGradient>
<linearGradient id="paint20_linear_1_422" x1="109.924" y1="112.245" x2="5.39249" y2="112.245" gradientUnits="userSpaceOnUse">
<stop stop-color="#3FD47B"/>
<stop offset="1" stop-color="#40DC7F"/>
</linearGradient>
<linearGradient id="paint21_linear_1_422" x1="60.4387" y1="114.255" x2="60.4387" y2="108.454" gradientUnits="userSpaceOnUse">
<stop offset="0.107" stop-color="#3FD17B"/>
<stop offset="1" stop-color="#3FD17B" stop-opacity="0"/>
</linearGradient>
<radialGradient id="paint22_radial_1_422" cx="0" cy="0" r="1" gradientUnits="userSpaceOnUse" gradientTransform="translate(112.822 103.571) rotate(147.147) scale(12.5692 20.6104)">
<stop stop-color="#5CEE92"/>
<stop offset="1" stop-color="#5CEE92" stop-opacity="0"/>
</radialGradient>
<linearGradient id="paint23_linear_1_422" x1="29.3363" y1="104.662" x2="63.21" y2="104.662" gradientUnits="userSpaceOnUse">
<stop stop-color="#9FA1A3"/>
<stop offset="1" stop-color="#C4C1C7"/>
</linearGradient>
<linearGradient id="paint24_linear_1_422" x1="27.7538" y1="104.662" x2="32.0663" y2="104.662" gradientUnits="userSpaceOnUse">
<stop stop-color="#59675C"/>
<stop offset="1" stop-color="#59675C" stop-opacity="0"/>
</linearGradient>
<linearGradient id="paint25_linear_1_422" x1="64.53" y1="103.009" x2="58.86" y2="106.534" gradientUnits="userSpaceOnUse">
<stop stop-color="#E3DADD"/>
<stop offset="1" stop-color="#E3DADD" stop-opacity="0"/>
</linearGradient>
<linearGradient id="paint26_linear_1_422" x1="59.7975" y1="13.8825" x2="111.187" y2="66.7875" gradientUnits="userSpaceOnUse">
<stop stop-color="#FF8337"/>
<stop offset="1" stop-color="#F24747"/>
</linearGradient>
<linearGradient id="paint27_linear_1_422" x1="62.7413" y1="13.8825" x2="11.3513" y2="66.7875" gradientUnits="userSpaceOnUse">
<stop stop-color="#FF8337"/>
<stop offset="1" stop-color="#F24747"/>
</linearGradient>
</defs>
</svg>
