<svg width="51" height="51" viewBox="0 0 51 51" fill="none" xmlns="http://www.w3.org/2000/svg">
<g clip-path="url(#clip0_1_541)">
<path d="M0.666656 25.5C0.666656 36.1729 7.35624 45.2854 16.7708 48.8708C16.5417 46.9187 16.2979 43.7 16.8229 41.4417C17.275 39.5 19.7417 29.0708 19.7417 29.0708C19.7417 29.0708 18.9979 27.5812 18.9979 25.375C18.9979 21.9167 21.0021 19.3333 23.5 19.3333C25.625 19.3333 26.65 20.9271 26.65 22.8375C26.65 24.9729 25.2896 28.1646 24.5875 31.125C24.0021 33.6021 25.8312 35.6229 28.2729 35.6229C32.6958 35.6229 36.0979 30.9583 36.0979 24.225C36.0979 18.2646 31.8146 14.1 25.7 14.1C18.6208 14.1 14.4646 19.4104 14.4646 24.9C14.4646 27.0396 15.2875 29.3312 16.3167 30.5792C16.4044 30.6734 16.4664 30.7887 16.4967 30.9138C16.527 31.039 16.5245 31.1698 16.4896 31.2937C16.3 32.0812 15.8792 33.7708 15.7979 34.1167C15.6875 34.5708 15.4375 34.6687 14.9646 34.4479C11.8562 33.0021 9.91457 28.4583 9.91457 24.8083C9.91457 16.9562 15.6167 9.74792 26.3562 9.74792C34.9896 9.74792 41.7 15.9 41.7 24.1208C41.7 32.6979 36.2937 39.6021 28.7854 39.6021C26.2625 39.6021 23.8937 38.2896 23.0812 36.7417C23.0812 36.7417 21.8333 41.4958 21.5312 42.6583C20.9437 44.9167 19.3146 47.775 18.3042 49.3979C20.6333 50.1146 23.1042 50.5 25.6667 50.5C39.4729 50.5 50.6667 39.3062 50.6667 25.5C50.6667 11.6937 39.4729 0.5 25.6667 0.5C11.8604 0.5 0.666656 11.6937 0.666656 25.5Z" fill="black"/>
</g>
<defs>
<clipPath id="clip0_1_541">
<rect width="50" height="50" fill="white" transform="translate(0.666656 0.5)"/>
</clipPath>
</defs>
</svg>
