<svg width="51" height="51" viewBox="0 0 51 51" fill="none" xmlns="http://www.w3.org/2000/svg">
<path d="M49.5896 10.7854C47.85 11.5562 45.9813 12.077 44.0167 12.3125C46.0438 11.0995 47.5603 9.19051 48.2833 6.94162C46.3788 8.07285 44.2945 8.86911 42.1208 9.29579C40.6591 7.73509 38.723 6.70064 36.6132 6.35303C34.5033 6.00542 32.3377 6.36411 30.4526 7.3734C28.5675 8.38269 27.0683 9.98613 26.1878 11.9348C25.3074 13.8834 25.0949 16.0682 25.5833 18.15C21.7243 17.9562 17.9492 16.9532 14.503 15.206C11.0567 13.4588 8.01634 11.0065 5.57917 8.00829C4.74583 9.44579 4.26667 11.1125 4.26667 12.8875C4.26574 14.4854 4.65923 16.0588 5.41225 17.4682C6.16526 18.8775 7.2545 20.0792 8.58333 20.9666C7.04224 20.9176 5.53515 20.5012 4.1875 19.752V19.877C4.18734 22.1182 4.96257 24.2903 6.38163 26.025C7.80069 27.7596 9.77619 28.9498 11.9729 29.3937C10.5433 29.7806 9.04445 29.8376 7.58958 29.5604C8.20937 31.4887 9.41666 33.175 11.0424 34.3831C12.6682 35.5913 14.6311 36.2608 16.6563 36.2979C13.2184 38.9967 8.97268 40.4606 4.60208 40.4541C3.82788 40.4543 3.05432 40.4091 2.28542 40.3187C6.72182 43.1712 11.8861 44.685 17.1604 44.6791C35.0146 44.6791 44.775 29.8916 44.775 17.0666C44.775 16.65 44.7646 16.2291 44.7458 15.8125C46.6444 14.4395 48.2831 12.7393 49.5854 10.7916L49.5896 10.7854V10.7854Z" fill="black"/>
</svg>
