<svg width="50" height="51" viewBox="0 0 50 51" fill="none" xmlns="http://www.w3.org/2000/svg">
<path fill-rule="evenodd" clip-rule="evenodd" d="M15.5521 2.72087C17.9958 2.60837 18.775 2.58337 25 2.58337C31.225 2.58337 32.0042 2.61046 34.4458 2.72087C36.8875 2.83129 38.5542 3.22087 40.0125 3.78546C41.5396 4.36254 42.925 5.26462 44.0708 6.43129C45.2375 7.57504 46.1375 8.95837 46.7125 10.4875C47.2792 11.9459 47.6667 13.6125 47.7792 16.05C47.8917 18.498 47.9167 19.2771 47.9167 25.5C47.9167 31.725 47.8896 32.5042 47.7792 34.948C47.6688 37.3855 47.2792 39.0521 46.7125 40.5105C46.1375 42.0398 45.236 43.4255 44.0708 44.5709C42.925 45.7375 41.5396 46.6375 40.0125 47.2125C38.5542 47.7792 36.8875 48.1667 34.45 48.2792C32.0042 48.3917 31.225 48.4167 25 48.4167C18.775 48.4167 17.9958 48.3896 15.5521 48.2792C13.1146 48.1688 11.4479 47.7792 9.98958 47.2125C8.46025 46.6375 7.07462 45.736 5.92917 44.5709C4.76329 43.4264 3.86107 42.0415 3.28542 40.5125C2.72083 39.0542 2.33333 37.3875 2.22083 34.95C2.10833 32.5021 2.08333 31.723 2.08333 25.5C2.08333 19.275 2.11042 18.4959 2.22083 16.0542C2.33125 13.6125 2.72083 11.9459 3.28542 10.4875C3.86192 8.95854 4.76483 7.57361 5.93125 6.42921C7.07508 5.26358 8.45932 4.36138 9.9875 3.78546C11.4458 3.22087 13.1125 2.83337 15.55 2.72087H15.5521ZM34.2604 6.84587C31.8438 6.73546 31.1188 6.71254 25 6.71254C18.8812 6.71254 18.1562 6.73546 15.7396 6.84587C13.5042 6.94796 12.2917 7.32087 11.4833 7.63546C10.4146 8.05212 9.65 8.54587 8.84792 9.34796C8.08759 10.0876 7.50246 10.9881 7.13542 11.9834C6.82083 12.7917 6.44792 14.0042 6.34583 16.2396C6.23542 18.6563 6.2125 19.3813 6.2125 25.5C6.2125 31.6188 6.23542 32.3438 6.34583 34.7605C6.44792 36.9959 6.82083 38.2084 7.13542 39.0167C7.50208 40.0105 8.0875 40.9125 8.84792 41.6521C9.5875 42.4125 10.4896 42.998 11.4833 43.3646C12.2917 43.6792 13.5042 44.0521 15.7396 44.1542C18.1562 44.2646 18.8792 44.2875 25 44.2875C31.1208 44.2875 31.8438 44.2646 34.2604 44.1542C36.4958 44.0521 37.7083 43.6792 38.5167 43.3646C39.5854 42.948 40.35 42.4542 41.1521 41.6521C41.9125 40.9125 42.4979 40.0105 42.8646 39.0167C43.1792 38.2084 43.5521 36.9959 43.6542 34.7605C43.7646 32.3438 43.7875 31.6188 43.7875 25.5C43.7875 19.3813 43.7646 18.6563 43.6542 16.2396C43.5521 14.0042 43.1792 12.7917 42.8646 11.9834C42.4479 10.9146 41.9542 10.15 41.1521 9.34796C40.4123 8.58769 39.5119 8.00256 38.5167 7.63546C37.7083 7.32087 36.4958 6.94796 34.2604 6.84587V6.84587ZM22.0729 32.5646C23.7076 33.2451 25.5279 33.3369 27.2228 32.8245C28.9177 32.312 30.3821 31.227 31.3659 29.7547C32.3496 28.2825 32.7918 26.5144 32.6168 24.7523C32.4417 22.9903 31.6604 21.3437 30.4063 20.0938C29.6067 19.2948 28.64 18.683 27.5757 18.3024C26.5114 17.9219 25.3759 17.782 24.251 17.893C23.1262 18.0039 22.0399 18.3629 21.0704 18.9441C20.1009 19.5252 19.2724 20.3141 18.6444 21.2539C18.0164 22.1937 17.6046 23.2611 17.4386 24.3791C17.2726 25.4972 17.3566 26.6382 17.6845 27.7199C18.0124 28.8016 18.576 29.7971 19.3348 30.6349C20.0937 31.4726 21.0288 32.1317 22.0729 32.5646ZM16.6708 17.1709C17.7646 16.0771 19.0632 15.2094 20.4923 14.6175C21.9214 14.0255 23.4531 13.7208 25 13.7208C26.5469 13.7208 28.0786 14.0255 29.5077 14.6175C30.9368 15.2094 32.2354 16.0771 33.3292 17.1709C34.423 18.2647 35.2906 19.5632 35.8826 20.9923C36.4745 22.4215 36.7792 23.9532 36.7792 25.5C36.7792 27.0469 36.4745 28.5786 35.8826 30.0078C35.2906 31.4369 34.423 32.7354 33.3292 33.8292C31.1201 36.0382 28.124 37.2793 25 37.2793C21.876 37.2793 18.8799 36.0382 16.6708 33.8292C14.4618 31.6202 13.2208 28.6241 13.2208 25.5C13.2208 22.376 14.4618 19.3799 16.6708 17.1709V17.1709ZM39.3917 15.475C39.6627 15.2194 39.8797 14.9119 40.0298 14.5708C40.1799 14.2298 40.26 13.8621 40.2655 13.4895C40.2709 13.1169 40.2015 12.747 40.0614 12.4017C39.9213 12.0564 39.7134 11.7428 39.4499 11.4793C39.1864 11.2158 38.8728 11.0079 38.5275 10.8678C38.1822 10.7277 37.8123 10.6583 37.4397 10.6638C37.0671 10.6692 36.6994 10.7493 36.3584 10.8994C36.0173 11.0495 35.7099 11.2665 35.4542 11.5375C34.9569 12.0647 34.6846 12.7649 34.6952 13.4895C34.7058 14.2141 34.9983 14.906 35.5107 15.4185C36.0232 15.9309 36.7151 16.2234 37.4397 16.234C38.1643 16.2446 38.8645 15.9723 39.3917 15.475V15.475Z" fill="black"/>
</svg>
